<svg viewBox="0 0 800 800" preserveAspectRatio="xMidYMid meet" style="font: 10px sans-serif;" version="1.1" xmlns="http://www.w3.org/2000/svg"><g id="circle" transform="translate(400,400)"><circle r="285.7142857142857" style="fill: none;"></circle><g class="group"><title>http://purl.org/ontology/politico/Expense</title><path id="group0" d="M0,-285.714A285.714,285.714,0,0,1,34.905,283.574L31.973,259.754A261.714,261.714,0,0,0,0,-261.714Z" style="fill: rgb(31, 119, 180);"></path><text dy=".35em" transform="rotate(-3.508634729943779)translate(287.7142857142857)">http://purl.org/ontology/politico/Expense</text></g><g class="group"><title>http://schema.org/Person</title><path id="group1" d="M23.537,284.743A285.714,285.714,0,0,1,-45.519,-282.065L-41.696,-258.371A261.714,261.714,0,0,0,21.56,260.825Z" style="fill: rgb(255, 127, 14);"></path><text dy=".35em" transform="rotate(173.0536184992713)translate(287.7142857142857)rotate(180)" style="text-anchor: end;">http://schema.org/Person</text></g><g class="group"><title>http://purl.org/ontology/politico/ExpenseCategory</title><path id="group2" d="M-34.203,-283.66L-31.33,-259.832Z" style="fill: rgb(44, 160, 44);"></path><text dy=".35em" transform="rotate(263.12450645843006)translate(287.7142857142857)rotate(180)" style="text-anchor: end;">http://purl.org/ontology/politico/ExpenseCategory</text></g><g class="group"><title>http://schema.org/Organization</title><path id="group3" d="M-22.833,-284.8L-20.915,-260.877Z" style="fill: rgb(214, 39, 40);"></path><text dy=".35em" transform="rotate(265.4163376389534)translate(287.7142857142857)rotate(180)" style="text-anchor: end;">http://schema.org/Organization</text></g><g class="group"><title>http://schema.org/Place</title><path id="group4" d="M-11.426,-285.486L-10.466,-261.505Z" style="fill: rgb(148, 103, 189);"></path><text dy=".35em" transform="rotate(267.7081688194767)translate(287.7142857142857)rotate(180)" style="text-anchor: end;">http://schema.org/Place</text></g><path class="chord" d="M-53.358526457320366,-256.2171637522401A261.7142857142857,261.7142857142857,0,0,1,-47.539393399352505,-257.3603959861742Q0,0,-20.914817050217835,-260.8772465637712Q0,0,-53.358526457320366,-256.2171637522401Z" style="fill: rgb(214, 39, 40); fill-opacity: 0.67; stroke: rgb(0, 0, 0); stroke-width: 0.25px; cursor: pointer;"></path><path class="chord" d="M-47.539393399352505,-257.3603959861742A261.7142857142857,261.7142857142857,0,0,1,-41.695850645328456,-258.3714833063069Q0,0,-10.465780032844883,-261.50494220041594Q0,0,-47.539393399352505,-257.3603959861742Z" style="fill: rgb(148, 103, 189); fill-opacity: 0.67; stroke: rgb(0, 0, 0); stroke-width: 0.25px; cursor: pointer;"></path><path class="chord" d="M21.560281779403276,260.82469514317756A261.7142857142857,261.7142857142857,0,0,1,-53.358526457320366,-256.2171637522401Q0,0,31.97324175182801,259.75388189364554Q0,0,21.560281779403276,260.82469514317756Z" style="fill: rgb(31, 119, 180); fill-opacity: 0.67; stroke: rgb(0, 0, 0); stroke-width: 0.25px; cursor: pointer;"></path><path class="chord" d="M1.6025378114556795e-14,-261.7142857142857A261.7142857142857,261.7142857142857,0,0,1,31.97324175182801,259.75388189364554Q0,0,-31.330394821900114,-259.832202983469Q0,0,1.6025378114556795e-14,-261.7142857142857Z" style="fill: rgb(44, 160, 44); fill-opacity: 0.67; stroke: rgb(0, 0, 0); stroke-width: 0.25px; cursor: pointer;"></path></g></svg>